<svg width="585" height="273" viewBox="0 0 585 273" fill="none" xmlns="http://www.w3.org/2000/svg">
<path d="M136.14 56.3C140.893 51.24 145.57 46.18 150.17 41.12C154.846 36.06 159.561 31 164.315 25.94H149.595H149.365H149.25H127.285V56.3H136.14ZM182.83 88.385C182.446 84.8583 181.296 82.1367 179.38 80.22C177.463 78.3033 175.048 76.9233 172.135 76.08C169.298 75.16 166.116 74.6233 162.59 74.47C159.14 74.3167 155.651 74.24 152.125 74.24H127.285V104.945H152.93C155.536 104.945 157.99 104.945 160.29 104.945C162.666 104.868 164.851 104.715 166.845 104.485C168.915 104.178 170.831 103.718 172.595 103.105C174.358 102.492 176.006 101.648 177.54 100.575C178.23 100.038 178.92 99.3867 179.61 98.62C180.3 97.7767 180.913 96.8567 181.45 95.86C181.986 94.7867 182.37 93.6367 182.6 92.41C182.906 91.1067 182.983 89.765 182.83 88.385ZM191.915 21.8C186.625 27.55 181.296 33.3 175.93 39.05C170.64 44.8 165.311 50.55 159.945 56.3C169.451 56.1467 177.578 57.4883 184.325 60.325C191.148 63.1617 196.285 67.5317 199.735 73.435C200.655 74.9683 201.383 76.885 201.92 79.185C202.533 81.4083 202.916 83.785 203.07 86.315C203.3 88.845 203.3 91.4133 203.07 94.02C202.916 96.55 202.495 98.85 201.805 100.92C201.115 103.143 200.118 105.328 198.815 107.475C197.588 109.545 196.131 111.232 194.445 112.535C191.531 114.988 188.465 116.905 185.245 118.285C182.101 119.665 178.268 120.853 173.745 121.85C170.141 122.693 166.155 123.077 161.785 123C157.491 122.923 153.198 122.885 148.905 122.885H107.39V8H204.68L203.99 8.69L191.915 21.8ZM214.641 7.655H234.881V105.06H260.296V122.655H214.641V7.655ZM328.307 81.485L315.312 51.125L303.122 79.99C303.046 80.0667 303.007 80.1433 303.007 80.22L302.547 81.14L315.542 95.17L328.307 81.485ZM365.912 122.54H345.787L335.667 99.08L315.542 120.7L295.187 98.735L285.067 122.54H265.402L315.542 7.53999L365.912 122.54ZM415.083 58.255C417.076 58.255 418.763 58.9833 420.143 60.44C421.6 61.82 422.328 63.5067 422.328 65.5C422.328 67.4933 421.6 69.2183 420.143 70.675C418.763 72.055 417.076 72.745 415.083 72.745C413.09 72.745 411.365 72.055 409.908 70.675C408.528 69.2183 407.838 67.4933 407.838 65.5C407.838 63.5067 408.528 61.82 409.908 60.44C411.365 58.9833 413.09 58.255 415.083 58.255ZM447.513 90.57C449.583 92.7167 451.653 94.8633 453.723 97.01C455.87 99.08 457.978 101.15 460.048 103.22L459.703 103.565L457.978 105.405C456.905 106.555 455.793 107.628 454.643 108.625C453.493 109.622 452.266 110.618 450.963 111.615C448.05 113.685 445.021 115.563 441.878 117.25C438.735 118.86 435.208 120.163 431.298 121.16C429.841 121.543 428.461 121.85 427.158 122.08C425.855 122.233 424.398 122.387 422.788 122.54C422.021 122.617 421.063 122.693 419.913 122.77C418.84 122.847 417.728 122.923 416.578 123C415.428 123 414.278 123 413.128 123C411.978 123 410.981 122.923 410.138 122.77C408.681 122.617 407.34 122.502 406.113 122.425C404.886 122.272 403.621 122.042 402.318 121.735C399.021 120.892 396.185 120.048 393.808 119.205C391.508 118.285 389.4 117.288 387.483 116.215C385.643 115.142 383.841 113.953 382.078 112.65C380.391 111.347 378.513 109.89 376.443 108.28C375.14 107.207 373.913 105.942 372.763 104.485C371.613 103.028 370.501 101.61 369.428 100.23C367.205 97.0867 365.288 93.79 363.678 90.34C362.145 86.8133 360.841 82.865 359.768 78.495C359.078 75.8883 358.695 72.5917 358.618 68.605C358.541 67.3017 358.503 65.6917 358.503 63.775C358.503 61.8583 358.58 60.2867 358.733 59.06C358.963 57.7567 359.155 56.4533 359.308 55.15C359.461 53.8467 359.73 52.5433 360.113 51.24C361.723 44.8 364.138 39.0117 367.358 33.875C370.578 28.6617 374.45 24.2917 378.973 20.765C380.276 19.7683 381.58 18.81 382.883 17.89C384.186 16.8933 385.643 15.9733 387.253 15.13C388.863 14.21 390.703 13.3283 392.773 12.485C394.843 11.6417 397.335 10.7983 400.248 9.955C401.321 9.57166 402.318 9.30333 403.238 9.14999C404.158 8.99666 405.155 8.84333 406.228 8.69C406.688 8.61333 407.186 8.53666 407.723 8.45999C408.336 8.38333 408.835 8.345 409.218 8.345C409.908 8.26833 410.598 8.23 411.288 8.23C412.055 8.15333 412.783 8.07666 413.473 8C415.313 8.07666 417.153 8.11499 418.993 8.11499C420.833 8.11499 422.673 8.22999 424.513 8.45999C426.046 8.69 427.541 8.95833 428.998 9.265C430.531 9.49499 432.026 9.80166 433.483 10.185C437.393 11.2583 440.805 12.5617 443.718 14.095C446.631 15.6283 449.545 17.4683 452.458 19.615C453.608 20.4583 454.796 21.3783 456.023 22.375C457.25 23.295 458.323 24.2917 459.243 25.365C459.243 25.365 459.205 25.4033 459.128 25.48C457.058 27.8567 454.988 30.2333 452.918 32.61C450.848 34.9867 448.778 37.4017 446.708 39.855C446.555 39.7017 446.44 39.5867 446.363 39.51C446.363 39.4333 446.286 39.3183 446.133 39.165C445.213 38.475 444.293 37.7467 443.373 36.98C442.53 36.2133 441.648 35.485 440.728 34.795C438.811 33.3383 436.741 31.9967 434.518 30.77C432.295 29.5433 429.88 28.5083 427.273 27.665C426.2 27.2817 425.126 27.0133 424.053 26.86C422.98 26.63 421.83 26.4383 420.603 26.285C417.613 25.9017 414.546 25.9017 411.403 26.285C408.26 26.6683 405.576 27.2817 403.353 28.125C402.893 28.2783 402.433 28.47 401.973 28.7C401.59 28.93 401.168 29.1217 400.708 29.275C400.631 29.3517 400.555 29.39 400.478 29.39C400.478 29.39 400.44 29.4283 400.363 29.505C395.686 31.7283 391.815 34.6417 388.748 38.245C385.758 41.7717 383.266 46.1033 381.273 51.24C380.736 52.5433 380.315 53.9617 380.008 55.495C379.778 56.9517 379.548 58.4467 379.318 59.98C379.241 60.5933 379.165 61.2067 379.088 61.82C379.088 62.4333 379.05 63.0467 378.973 63.66C378.973 64.2733 378.973 64.8483 378.973 65.385C378.973 65.9217 379.011 66.4583 379.088 66.995C379.165 67.8383 379.203 68.6817 379.203 69.525C379.203 70.3683 379.28 71.0967 379.433 71.71C380.046 75.39 380.89 78.6483 381.963 81.485C384.186 86.8517 387.215 91.4517 391.048 95.285C394.881 99.0417 399.673 101.802 405.423 103.565C406.726 103.948 407.991 104.217 409.218 104.37C410.521 104.447 411.94 104.6 413.473 104.83C413.933 104.907 414.623 104.945 415.543 104.945C416.54 104.945 417.536 104.907 418.533 104.83C419.606 104.753 420.603 104.677 421.523 104.6C422.52 104.523 423.286 104.408 423.823 104.255C427.963 103.335 431.566 101.993 434.633 100.23C437.7 98.39 440.651 96.3583 443.488 94.135C444.178 93.5217 444.83 92.9467 445.443 92.41C446.133 91.7967 446.823 91.1833 447.513 90.57ZM491.586 73.09C492.506 72.0933 493.426 71.0967 494.346 70.1C495.342 69.1033 496.301 68.0683 497.221 66.995C495.611 65.2317 494.001 63.5067 492.391 61.82C490.781 60.0567 489.171 58.2933 487.561 56.53V77.46C488.174 76.77 488.787 76.08 489.401 75.39C490.091 74.7 490.781 73.9717 491.471 73.205L491.586 73.09ZM522.291 67.685C531.031 77.0383 539.694 86.3917 548.281 95.745C556.867 105.022 565.492 114.337 574.156 123.69C574.156 123.767 574.194 123.805 574.271 123.805H549.891C543.144 116.445 536.397 109.162 529.651 101.955C522.981 94.7483 516.272 87.465 509.526 80.105C505.846 84.0917 502.166 88.04 498.486 91.95C494.882 95.86 491.241 99.8083 487.561 103.795V123.575H467.551C467.551 104.332 467.551 85.2033 467.551 66.19C467.551 47.1767 467.589 28.0483 467.666 8.805C474.642 16.3183 481.581 23.8317 488.481 31.345C495.457 38.7817 502.434 46.2567 509.411 53.77C516.311 46.3333 523.172 38.9733 529.996 31.69C536.819 24.33 543.681 16.9317 550.581 9.49499H574.846L573.811 10.53C567.064 17.8133 560.356 25.0583 553.686 32.265C547.092 39.4717 540.422 46.7167 533.676 54C532.066 55.6867 530.456 57.3733 528.846 59.06C527.312 60.67 525.779 62.3183 524.246 64.005C524.169 64.1583 524.054 64.3117 523.901 64.465C523.747 64.6183 523.594 64.81 523.441 65.04C523.287 65.1933 523.134 65.3467 522.981 65.5C522.597 65.96 522.137 66.4583 521.601 66.995L522.291 67.685Z" fill="#202020"/>
<path d="M63.2947 216.485L50.2997 186.125L38.1096 214.99C38.033 215.067 37.9947 215.143 37.9947 215.22L37.5347 216.14L50.5297 230.17L63.2947 216.485ZM100.9 257.54H80.7747L70.6546 234.08L50.5297 255.7L30.1746 233.735L20.0546 257.54H0.389648L50.5297 142.54L100.9 257.54ZM170.872 197.05C173.325 195.977 175.433 194.52 177.197 192.68C178.96 190.84 180.225 188.578 180.992 185.895C181.528 184.132 181.797 182.368 181.797 180.605C181.797 178.842 181.605 177.193 181.222 175.66C180.915 174.127 180.455 172.747 179.842 171.52C179.305 170.217 178.692 169.143 178.002 168.3C178.002 168.223 177.963 168.185 177.887 168.185C177.887 168.185 177.887 168.147 177.887 168.07C177.887 168.07 177.848 168.032 177.772 167.955C176.162 166.115 174.322 164.735 172.252 163.815C170.182 162.895 167.958 162.243 165.582 161.86C163.282 161.4 160.828 161.17 158.222 161.17C155.692 161.093 153.047 161.055 150.287 161.055H133.267C139.017 167.265 144.767 173.475 150.517 179.685C156.267 185.818 162.055 191.99 167.882 198.2C168.495 198.123 169.032 197.97 169.492 197.74C169.952 197.51 170.412 197.28 170.872 197.05ZM180.647 212C180.953 212.383 182.142 213.687 184.212 215.91C186.282 218.133 188.658 220.74 191.342 223.73C194.102 226.72 196.9 229.748 199.737 232.815C202.65 235.882 205.027 238.45 206.867 240.52V257.54H182.487V240.405C179.803 237.492 177.082 234.617 174.322 231.78C171.562 228.867 168.84 225.953 166.157 223.04C165.313 222.12 164.47 221.2 163.627 220.28C162.783 219.283 161.94 218.325 161.097 217.405H128.667V257.425H108.427V173.13C112.567 177.577 116.63 181.985 120.617 186.355C124.68 190.725 128.782 195.133 132.922 199.58H144.422C144.422 199.503 144.383 199.465 144.307 199.465C138.327 192.948 132.347 186.47 126.367 180.03C120.387 173.59 114.407 167.112 108.427 160.595V142.655H147.872C151.782 142.655 155.73 142.617 159.717 142.54C163.78 142.463 167.46 142.808 170.757 143.575C173.21 144.112 175.357 144.648 177.197 145.185C179.037 145.722 180.685 146.335 182.142 147.025C183.675 147.638 185.055 148.367 186.282 149.21C187.585 150.053 188.927 150.973 190.307 151.97C192.607 153.733 194.677 156.11 196.517 159.1C198.433 162.09 199.89 165.387 200.887 168.99C201.883 172.593 202.343 176.427 202.267 180.49C202.267 184.477 201.538 188.387 200.082 192.22C196.402 201.573 189.923 208.167 180.647 212ZM207.367 143.69H300.747V162.435H264.177V188.77H282.232V208.665H264.177V258.69H243.822V208.665H228.527V188.77H243.822V162.435H207.367V143.69Z" fill="#202020"/>
</svg>
