<svg width="616" height="246" viewBox="0 0 616 246" fill="none" xmlns="http://www.w3.org/2000/svg">
<path d="M60.2952 202.44L47.8393 173.319L36.1551 201.007C36.0816 201.08 36.0449 201.154 36.0449 201.227L35.6039 202.11L48.0598 215.567L60.2952 202.44ZM96.3401 241.821H77.05L67.3499 219.318L48.0598 240.056L28.5493 218.987L18.8491 241.821H0L48.0598 131.512L96.3401 241.821Z" fill="#202020"/>
<path d="M163.409 183.798C165.761 182.769 167.782 181.371 169.472 179.606C171.162 177.841 172.374 175.672 173.109 173.098C173.624 171.407 173.881 169.715 173.881 168.024C173.881 166.333 173.697 164.751 173.33 163.281C173.036 161.81 172.595 160.486 172.007 159.309C171.493 158.059 170.905 157.03 170.243 156.221C170.243 156.147 170.207 156.111 170.133 156.111C170.133 156.111 170.133 156.074 170.133 156C170.133 156 170.096 155.963 170.023 155.89C168.48 154.125 166.716 152.801 164.732 151.919C162.748 151.036 160.617 150.411 158.339 150.044C156.134 149.602 153.783 149.382 151.284 149.382C148.859 149.308 146.324 149.271 143.678 149.271H127.364C132.876 155.228 138.387 161.185 143.899 167.141C149.41 173.025 154.958 178.945 160.543 184.901C161.131 184.828 161.646 184.681 162.086 184.46C162.527 184.239 162.968 184.019 163.409 183.798ZM172.779 198.138C173.073 198.506 174.212 199.756 176.196 201.889C178.18 204.022 180.458 206.522 183.03 209.39C185.675 212.258 188.358 215.163 191.077 218.104C193.869 221.046 196.147 223.51 197.911 225.495V241.821H174.542V225.385C171.97 222.59 169.362 219.833 166.716 217.112C164.071 214.317 161.462 211.523 158.89 208.728C158.081 207.846 157.273 206.963 156.465 206.081C155.656 205.125 154.848 204.205 154.04 203.323H122.955V241.711H103.555V160.854C107.523 165.119 111.418 169.348 115.239 173.539C119.134 177.731 123.065 181.96 127.034 186.225H138.057C138.057 186.151 138.02 186.115 137.946 186.115C132.214 179.864 126.483 173.65 120.751 167.472C115.019 161.295 109.287 155.081 103.555 148.83V131.622H141.363C145.111 131.622 148.896 131.585 152.717 131.512C156.612 131.438 160.139 131.769 163.299 132.504C165.651 133.019 167.708 133.534 169.472 134.049C171.235 134.563 172.815 135.152 174.212 135.814C175.681 136.402 177.004 137.101 178.18 137.909C179.429 138.718 180.715 139.601 182.038 140.557C184.242 142.248 186.227 144.528 187.99 147.396C189.827 150.264 191.224 153.426 192.179 156.883C193.134 160.339 193.575 164.016 193.502 167.914C193.502 171.738 192.804 175.488 191.407 179.165C187.88 188.137 181.67 194.461 172.779 198.138Z" fill="#202020"/>
<path d="M198.391 132.615H287.896V150.595H252.844V175.856H270.15V194.939H252.844V242.924H233.333V194.939H218.673V175.856H233.333V150.595H198.391V132.615Z" fill="#202020"/>
<path d="M294.733 131.622H314.133V241.931H294.733V131.622Z" fill="#202020"/>
<path d="M390.211 223.62C391.46 222.517 392.636 221.009 393.739 219.097C394.841 217.112 395.208 214.942 394.841 212.589C394.62 211.265 394.363 210.125 394.069 209.169C393.849 208.213 393.445 207.331 392.857 206.522C391.167 204.389 388.999 202.808 386.353 201.779C383.781 200.749 381.099 199.72 378.306 198.69C374.412 202.882 370.517 207.073 366.622 211.265C362.801 215.457 358.943 219.649 355.048 223.841C355.048 223.841 355.011 223.841 354.938 223.841C354.938 223.841 354.975 223.877 355.048 223.951C355.195 224.024 355.489 224.171 355.93 224.392C356.371 224.539 357.106 224.833 358.135 225.275C359.09 225.642 360.082 225.973 361.111 226.267C362.213 226.561 363.279 226.819 364.307 227.04C366.218 227.554 368.312 227.885 370.59 228.032C372.942 228.179 375.22 228.143 377.425 227.922C379.703 227.701 381.797 227.334 383.708 226.819C385.692 226.304 387.345 225.642 388.668 224.833C388.888 224.686 389.293 224.392 389.881 223.951C390.027 223.877 390.101 223.841 390.101 223.841C390.101 223.767 390.138 223.693 390.211 223.62ZM414.682 209.059C414.682 209.353 414.682 209.868 414.682 210.603C414.682 211.265 414.682 212.074 414.682 213.03C414.682 213.913 414.645 214.869 414.572 215.898C414.498 216.854 414.351 217.737 414.131 218.546C413.543 221.046 412.845 223.289 412.037 225.275C411.228 227.26 410.199 229.135 408.95 230.9C406.525 234.357 403.549 237.151 400.022 239.284C396.494 241.343 392.379 242.998 387.676 244.248C386.5 244.615 385.288 244.836 384.038 244.91C382.789 245.057 381.503 245.241 380.18 245.461C380.989 245.461 380.915 245.498 379.96 245.572C379.078 245.645 377.719 245.682 375.881 245.682C374.118 245.682 372.097 245.608 369.819 245.461C367.614 245.388 365.593 245.167 363.756 244.799C362.507 244.579 361.294 244.395 360.119 244.248C359.016 244.101 357.914 243.843 356.812 243.476C352.917 242.373 349.316 241.122 346.009 239.725C342.776 238.254 339.653 236.563 336.64 234.651C335.758 234.063 334.803 233.401 333.774 232.665C332.819 231.93 331.9 231.231 331.018 230.569C330.136 229.834 329.365 229.209 328.703 228.694C328.116 228.179 327.748 227.848 327.601 227.701L327.711 227.591C333.223 222.076 338.514 216.487 343.584 210.824C348.655 205.088 353.799 199.352 359.016 193.616C357.473 193.101 355.93 192.586 354.387 192.071C352.917 191.483 351.521 190.895 350.198 190.306C347.993 189.35 345.936 188.247 344.025 186.997C342.188 185.747 340.498 184.313 338.955 182.695C337.485 181.077 336.199 179.202 335.097 177.069C334.068 174.937 333.26 172.473 332.672 169.679C332.378 168.355 332.121 166.774 331.9 164.935C331.753 163.097 331.827 161.405 332.121 159.861C332.194 159.346 332.268 158.648 332.341 157.765C332.488 156.809 332.708 155.743 333.002 154.566C333.296 153.39 333.737 152.066 334.325 150.595C334.913 149.124 335.758 147.506 336.86 145.741C339.065 142.138 341.931 139.196 345.458 136.917C349.059 134.637 353.101 132.798 357.583 131.401C358.686 131.034 359.825 130.776 361.001 130.629C362.176 130.482 363.389 130.298 364.638 130.077C365.226 130.004 365.777 129.967 366.292 129.967C366.879 129.894 367.467 129.857 368.055 129.857C372.832 129.71 377.241 129.93 381.283 130.519C385.324 131.034 389.035 131.953 392.416 133.276C393.445 133.644 394.437 134.049 395.392 134.49C396.421 134.931 397.45 135.372 398.478 135.814C398.846 135.961 399.25 136.181 399.691 136.475C400.132 136.696 400.536 136.88 400.903 137.027V152.47C400.903 152.764 400.903 153.242 400.903 153.904C400.977 154.493 401.014 155.155 401.014 155.89C401.014 156.625 400.977 157.287 400.903 157.875C400.903 158.464 400.867 158.831 400.793 158.979C401.161 159.346 401.014 159.273 400.352 158.758C399.691 158.17 398.883 157.581 397.927 156.993C395.796 155.596 393.775 154.382 391.865 153.353C389.44 152.029 387.235 150.963 385.251 150.154C383.267 149.345 381.356 148.757 379.519 148.389C377.755 147.948 375.992 147.69 374.228 147.617C372.538 147.47 370.811 147.396 369.047 147.396C367.724 147.396 366.512 147.47 365.41 147.617C364.381 147.764 363.389 147.984 362.434 148.279C360.817 148.793 359.237 149.529 357.694 150.485C356.224 151.441 354.975 152.654 353.946 154.125C352.917 155.522 352.219 157.177 351.852 159.089C351.484 160.927 351.668 163.023 352.403 165.377C353.138 167.656 354.57 169.532 356.702 171.002C358.906 172.473 361.405 173.723 364.197 174.753C367.063 175.709 370.076 176.555 373.236 177.29C376.396 178.025 379.299 178.797 381.944 179.606C385.471 180.636 388.815 181.739 391.975 182.916C395.208 184.092 398.148 185.49 400.793 187.107C403.512 188.725 405.9 190.674 407.958 192.954C410.089 195.234 411.816 198.028 413.139 201.337C413.58 202.514 413.874 203.764 414.021 205.088C414.168 206.338 414.388 207.662 414.682 209.059Z" fill="#202020"/>
<path d="M403.778 132.615H493.284V150.595H458.231V175.856H475.537V194.939H458.231V242.924H438.721V194.939H424.06V175.856H438.721V150.595H403.778V132.615Z" fill="#202020"/>
<path d="M557.6 223.62C558.849 222.517 560.025 221.009 561.127 219.097C562.229 217.112 562.597 214.942 562.229 212.589C562.009 211.265 561.752 210.125 561.458 209.169C561.237 208.213 560.833 207.331 560.245 206.522C558.555 204.389 556.387 202.808 553.742 201.779C551.17 200.749 548.488 199.72 545.695 198.69C541.8 202.882 537.906 207.073 534.011 211.265C530.19 215.457 526.332 219.649 522.437 223.841C522.437 223.841 522.4 223.841 522.327 223.841C522.327 223.841 522.363 223.877 522.437 223.951C522.584 224.024 522.878 224.171 523.319 224.392C523.76 224.539 524.494 224.833 525.523 225.275C526.479 225.642 527.471 225.973 528.499 226.267C529.602 226.561 530.667 226.819 531.696 227.04C533.607 227.554 535.701 227.885 537.979 228.032C540.331 228.179 542.609 228.143 544.813 227.922C547.091 227.701 549.186 227.334 551.096 226.819C553.08 226.304 554.734 225.642 556.057 224.833C556.277 224.686 556.681 224.392 557.269 223.951C557.416 223.877 557.49 223.841 557.49 223.841C557.49 223.767 557.526 223.693 557.6 223.62ZM582.071 209.059C582.071 209.353 582.071 209.868 582.071 210.603C582.071 211.265 582.071 212.074 582.071 213.03C582.071 213.913 582.034 214.869 581.96 215.898C581.887 216.854 581.74 217.737 581.52 218.546C580.932 221.046 580.234 223.289 579.425 225.275C578.617 227.26 577.588 229.135 576.339 230.9C573.914 234.357 570.938 237.151 567.41 239.284C563.883 241.343 559.768 242.998 555.065 244.248C553.889 244.615 552.676 244.836 551.427 244.91C550.178 245.057 548.892 245.241 547.569 245.461C548.377 245.461 548.304 245.498 547.349 245.572C546.467 245.645 545.107 245.682 543.27 245.682C541.506 245.682 539.486 245.608 537.207 245.461C535.003 245.388 532.982 245.167 531.145 244.799C529.896 244.579 528.683 244.395 527.507 244.248C526.405 244.101 525.303 243.843 524.2 243.476C520.306 242.373 516.705 241.122 513.398 239.725C510.165 238.254 507.042 236.563 504.029 234.651C503.147 234.063 502.191 233.401 501.163 232.665C500.207 231.93 499.289 231.231 498.407 230.569C497.525 229.834 496.753 229.209 496.092 228.694C495.504 228.179 495.137 227.848 494.99 227.701L495.1 227.591C500.611 222.076 505.902 216.487 510.973 210.824C516.044 205.088 521.188 199.352 526.405 193.616C524.862 193.101 523.319 192.586 521.775 192.071C520.306 191.483 518.909 190.895 517.587 190.306C515.382 189.35 513.325 188.247 511.414 186.997C509.577 185.747 507.887 184.313 506.343 182.695C504.874 181.077 503.588 179.202 502.485 177.069C501.457 174.937 500.648 172.473 500.06 169.679C499.766 168.355 499.509 166.774 499.289 164.935C499.142 163.097 499.215 161.405 499.509 159.861C499.583 159.346 499.656 158.648 499.73 157.765C499.877 156.809 500.097 155.743 500.391 154.566C500.685 153.39 501.126 152.066 501.714 150.595C502.302 149.124 503.147 147.506 504.249 145.741C506.454 142.138 509.32 139.196 512.847 136.917C516.448 134.637 520.489 132.798 524.972 131.401C526.074 131.034 527.213 130.776 528.389 130.629C529.565 130.482 530.777 130.298 532.027 130.077C532.615 130.004 533.166 129.967 533.68 129.967C534.268 129.894 534.856 129.857 535.444 129.857C540.22 129.71 544.63 129.93 548.671 130.519C552.713 131.034 556.424 131.953 559.804 133.276C560.833 133.644 561.825 134.049 562.781 134.49C563.809 134.931 564.838 135.372 565.867 135.814C566.234 135.961 566.639 136.181 567.08 136.475C567.52 136.696 567.925 136.88 568.292 137.027V152.47C568.292 152.764 568.292 153.242 568.292 153.904C568.365 154.493 568.402 155.155 568.402 155.89C568.402 156.625 568.365 157.287 568.292 157.875C568.292 158.464 568.255 158.831 568.182 158.979C568.549 159.346 568.402 159.273 567.741 158.758C567.08 158.17 566.271 157.581 565.316 156.993C563.185 155.596 561.164 154.382 559.253 153.353C556.828 152.029 554.624 150.963 552.64 150.154C550.655 149.345 548.745 148.757 546.908 148.389C545.144 147.948 543.38 147.69 541.617 147.617C539.926 147.47 538.2 147.396 536.436 147.396C535.113 147.396 533.901 147.47 532.798 147.617C531.77 147.764 530.777 147.984 529.822 148.279C528.205 148.793 526.625 149.529 525.082 150.485C523.613 151.441 522.363 152.654 521.335 154.125C520.306 155.522 519.608 157.177 519.24 159.089C518.873 160.927 519.056 163.023 519.791 165.377C520.526 167.656 521.959 169.532 524.09 171.002C526.295 172.473 528.793 173.723 531.586 174.753C534.452 175.709 537.465 176.555 540.625 177.29C543.784 178.025 546.687 178.797 549.333 179.606C552.86 180.636 556.204 181.739 559.364 182.916C562.597 184.092 565.536 185.49 568.182 187.107C570.901 188.725 573.289 190.674 575.347 192.954C577.478 195.234 579.205 198.028 580.527 201.337C580.968 202.514 581.262 203.764 581.409 205.088C581.556 206.338 581.777 207.662 582.071 209.059Z" fill="#202020"/>
<path d="M177.974 49.221C182.72 44.165 187.389 39.109 191.982 34.053C196.651 28.997 201.359 23.941 206.105 18.886H169.132V49.221H177.974ZM224.591 81.279C224.209 77.756 223.06 75.036 221.147 73.121C219.233 71.206 216.822 69.827 213.913 68.984C211.081 68.065 207.904 67.529 204.383 67.376C200.938 67.223 197.455 67.146 193.934 67.146H169.132V97.826H194.738C197.34 97.826 199.79 97.826 202.086 97.826C204.459 97.749 206.641 97.596 208.631 97.366C210.698 97.06 212.612 96.6 214.372 95.987C216.133 95.374 217.779 94.532 219.31 93.459C219.999 92.923 220.687 92.272 221.376 91.506C222.065 90.663 222.678 89.744 223.214 88.748C223.749 87.676 224.132 86.527 224.362 85.301C224.668 83.999 224.745 82.658 224.591 81.279ZM233.662 14.749C228.381 20.494 223.06 26.24 217.702 31.985C212.42 37.73 207.1 43.475 201.742 49.221C211.234 49.067 219.348 50.408 226.084 53.242C232.897 56.077 238.026 60.443 241.47 66.342C242.389 67.874 243.116 69.789 243.652 72.087C244.264 74.308 244.647 76.683 244.8 79.211C245.03 81.739 245.03 84.305 244.8 86.91C244.647 89.438 244.226 91.736 243.537 93.804C242.848 96.026 241.853 98.209 240.552 100.354C239.327 102.422 237.872 104.107 236.188 105.41C233.28 107.861 230.218 109.776 227.003 111.155C223.864 112.534 220.037 113.721 215.52 114.717C211.923 115.56 207.942 115.943 203.579 115.866C199.292 115.789 195.006 115.751 190.719 115.751H149.268V0.960007H246.408L245.719 1.64999L233.662 14.749Z" fill="#202020"/>
<path d="M256.353 0.615997H276.562V97.941H301.937V115.521H256.353V0.615997Z" fill="#202020"/>
<path d="M369.844 74.385L356.869 44.05L344.698 72.891C344.621 72.968 344.583 73.044 344.583 73.121L344.124 74.04L357.098 88.059L369.844 74.385ZM407.39 115.406H387.297L377.192 91.966L357.098 113.568L336.775 91.621L326.671 115.406H307.036L357.098 0.501007L407.39 115.406Z" fill="#202020"/>
<path d="M456.485 51.174C458.475 51.174 460.159 51.902 461.537 53.357C462.991 54.736 463.719 56.421 463.719 58.413C463.719 60.405 462.991 62.128 461.537 63.584C460.159 64.963 458.475 65.652 456.485 65.652C454.495 65.652 452.772 64.963 451.318 63.584C449.94 62.128 449.251 60.405 449.251 58.413C449.251 56.421 449.94 54.736 451.318 53.357C452.772 51.902 454.495 51.174 456.485 51.174ZM488.864 83.463C490.931 85.607 492.998 87.752 495.065 89.897C497.208 91.966 499.313 94.034 501.38 96.102L501.036 96.447L499.313 98.285C498.242 99.434 497.132 100.507 495.983 101.503C494.835 102.499 493.61 103.494 492.309 104.49C489.4 106.559 486.377 108.435 483.238 110.121C480.1 111.729 476.579 113.032 472.675 114.027C471.22 114.41 469.842 114.717 468.541 114.947C467.24 115.1 465.785 115.253 464.178 115.406C463.412 115.483 462.455 115.56 461.307 115.636C460.236 115.713 459.126 115.789 457.977 115.866C456.829 115.866 455.681 115.866 454.533 115.866C453.385 115.866 452.389 115.789 451.547 115.636C450.093 115.483 448.753 115.368 447.529 115.291C446.304 115.138 445.041 114.908 443.74 114.602C440.448 113.759 437.616 112.917 435.243 112.074C432.946 111.155 430.841 110.159 428.928 109.087C427.09 108.014 425.292 106.827 423.531 105.524C421.847 104.222 419.971 102.767 417.905 101.158C416.603 100.086 415.379 98.822 414.23 97.366C413.082 95.911 411.972 94.493 410.901 93.115C408.681 89.974 406.767 86.68 405.159 83.233C403.628 79.709 402.327 75.764 401.255 71.397C400.567 68.793 400.184 65.499 400.107 61.516C400.031 60.213 399.992 58.605 399.992 56.69C399.992 54.774 400.069 53.204 400.222 51.978C400.452 50.676 400.643 49.374 400.796 48.072C400.949 46.769 401.217 45.467 401.6 44.165C403.207 37.73 405.619 31.946 408.834 26.814C412.049 21.605 415.914 17.239 420.431 13.715C421.732 12.719 423.033 11.761 424.335 10.842C425.636 9.846 427.09 8.927 428.698 8.084C430.305 7.165 432.143 6.284 434.209 5.442C436.276 4.599 438.764 3.756 441.673 2.914C442.744 2.531 443.74 2.26199 444.658 2.10899C445.577 1.95599 446.572 1.80299 447.643 1.64999C448.103 1.57299 448.6 1.496 449.136 1.42C449.749 1.343 450.246 1.30499 450.629 1.30499C451.318 1.22799 452.007 1.19 452.696 1.19C453.461 1.113 454.188 1.03701 454.877 0.960007C456.714 1.03701 458.552 1.075 460.389 1.075C462.226 1.075 464.063 1.19 465.9 1.42C467.431 1.65 468.924 1.918 470.378 2.224C471.909 2.454 473.402 2.76001 474.856 3.14301C478.76 4.21601 482.167 5.518 485.075 7.05C487.984 8.582 490.893 10.421 493.802 12.566C494.95 13.408 496.137 14.328 497.361 15.323C498.586 16.243 499.658 17.239 500.576 18.311C500.576 18.311 500.538 18.349 500.461 18.426C498.395 20.801 496.328 23.175 494.261 25.55C492.194 27.925 490.128 30.338 488.061 32.789C487.908 32.636 487.793 32.521 487.716 32.444C487.716 32.368 487.64 32.253 487.487 32.1C486.568 31.41 485.65 30.683 484.731 29.916C483.889 29.15 483.009 28.423 482.09 27.733C480.176 26.278 478.11 24.937 475.89 23.712C473.67 22.486 471.259 21.452 468.656 20.609C467.584 20.226 466.513 19.958 465.441 19.805C464.369 19.575 463.221 19.383 461.996 19.23C459.011 18.847 455.949 18.847 452.81 19.23C449.672 19.613 446.993 20.226 444.773 21.069C444.314 21.222 443.854 21.413 443.395 21.643C443.012 21.873 442.591 22.065 442.132 22.218C442.055 22.294 441.979 22.333 441.902 22.333C441.902 22.333 441.864 22.371 441.788 22.448C437.118 24.669 433.252 27.58 430.191 31.18C427.205 34.704 424.717 39.032 422.727 44.165C422.191 45.467 421.77 46.884 421.464 48.416C421.234 49.872 421.005 51.366 420.775 52.898C420.699 53.51 420.622 54.123 420.546 54.736C420.546 55.349 420.507 55.962 420.431 56.575C420.431 57.187 420.431 57.762 420.431 58.298C420.431 58.834 420.469 59.371 420.546 59.907C420.622 60.75 420.66 61.592 420.66 62.435C420.66 63.277 420.737 64.005 420.89 64.618C421.502 68.295 422.344 71.551 423.416 74.385C425.636 79.747 428.66 84.343 432.487 88.174C436.314 91.927 441.099 94.685 446.84 96.447C448.141 96.83 449.404 97.098 450.629 97.251C451.93 97.328 453.346 97.481 454.877 97.711C455.337 97.787 456.025 97.826 456.944 97.826C457.939 97.826 458.934 97.787 459.929 97.711C461.001 97.634 461.996 97.558 462.915 97.481C463.91 97.404 464.675 97.29 465.211 97.136C469.345 96.217 472.943 94.876 476.004 93.115C479.066 91.276 482.013 89.246 484.846 87.025C485.535 86.412 486.185 85.837 486.798 85.301C487.487 84.688 488.176 84.075 488.864 83.463Z" fill="#202020"/>
<path d="M532.869 65.997C533.788 65.001 534.706 64.005 535.625 63.009C536.62 62.013 537.577 60.979 538.495 59.907C536.888 58.145 535.28 56.421 533.673 54.736C532.065 52.974 530.458 51.212 528.85 49.45V70.363C529.463 69.674 530.075 68.984 530.687 68.295C531.376 67.606 532.065 66.878 532.754 66.112L532.869 65.997ZM563.526 60.596C572.253 69.942 580.903 79.288 589.476 88.633C598.05 97.902 606.661 107.21 615.311 116.555C615.311 116.632 615.349 116.67 615.426 116.67H591.084C584.347 109.316 577.611 102.039 570.875 94.838C564.215 87.637 557.517 80.36 550.781 73.006C547.107 76.99 543.433 80.935 539.758 84.841C536.161 88.748 532.525 92.693 528.85 96.677V116.44H508.871C508.871 97.213 508.871 78.1 508.871 59.103C508.871 40.105 508.91 20.992 508.986 1.765C515.952 9.272 522.88 16.779 529.769 24.286C536.735 31.717 543.701 39.186 550.666 46.693C557.556 39.262 564.407 31.908 571.22 24.631C578.032 17.277 584.883 9.88499 591.773 2.45399H616L614.967 3.48801C608.23 10.766 601.532 18.005 594.873 25.205C588.29 32.406 581.63 39.645 574.894 46.923C573.286 48.608 571.679 50.293 570.071 51.978C568.54 53.587 567.009 55.234 565.478 56.919C565.402 57.073 565.287 57.226 565.134 57.379C564.981 57.532 564.828 57.724 564.675 57.953C564.522 58.107 564.368 58.26 564.215 58.413C563.833 58.873 563.373 59.371 562.838 59.907L563.526 60.596Z" fill="#202020"/>
</svg>
