<svg width="231" height="20" viewBox="0 0 231 20" fill="none" xmlns="http://www.w3.org/2000/svg">
<path d="M50.6602 3.99761C48.971 5.70594 48.04 7.97982 48.04 10.402C48.04 12.8241 48.9699 15.098 50.6602 16.8063C52.359 18.5242 54.6287 19.47 57.0508 19.47V19.4636H61.0574V15.5661H57.0064V15.5725C55.6497 15.5608 54.3819 15.0271 53.4319 14.0665C52.4692 13.0931 51.9386 11.7915 51.9386 10.403C51.9386 9.01456 52.4692 7.71399 53.4319 6.73962C54.3925 5.76843 55.6783 5.23358 57.0508 5.23358H61.0574V1.33398H57.0508C54.6287 1.33398 52.359 2.27976 50.6602 3.99761Z" fill="#202020"/>
<path d="M24.3923 1.32471H20.5732V19.5433H29.3288V15.7242H24.3923V1.32471Z" fill="#202020"/>
<path d="M12.9983 1.37852H3.82122V1.36899H0V19.5653H3.82122V19.5442H12.9983C16.0146 19.5442 18.4696 17.0775 18.4696 14.0443C18.4696 12.6759 17.9686 11.4241 17.1436 10.4613C17.9686 9.49756 18.4696 8.24571 18.4696 6.87841C18.4696 3.84622 16.0157 1.37852 12.9983 1.37852ZM12.9983 15.7229H3.82122V12.3783H12.9983C13.0481 12.3783 13.0968 12.3762 13.1455 12.3741C13.9992 12.4471 14.6473 13.1546 14.6473 14.0453C14.6473 14.9858 13.9229 15.7229 12.9983 15.7229ZM13.1455 8.54861C13.0968 8.54755 13.0481 8.54437 12.9983 8.54437H3.82122V5.19974H12.9983C13.9229 5.19974 14.6473 5.93688 14.6473 6.87736C14.6473 7.76806 13.9981 8.47447 13.1455 8.54861Z" fill="#202020"/>
<path d="M38.5403 9.7494L36.3446 11.9452L38.7388 14.3394L40.9346 12.1436L38.5403 9.7494Z" fill="#202020"/>
<path d="M38.6697 0.434814C34.6239 0.434814 31.3322 3.70743 31.3322 7.72882H31.3365V19.5219H35.1556V7.69493H35.1513C35.1704 5.79385 36.741 4.25392 38.6697 4.25392C40.5983 4.25392 42.188 5.81291 42.188 7.72882V19.5219H46.0071V7.72882C46.0071 3.70637 42.7154 0.434814 38.6697 0.434814Z" fill="#202020"/>
<path d="M75.6048 10.4689C77.3703 9.08361 78.5067 6.93999 78.5067 4.5369H78.5015V1.37655H75.2331V4.57397H75.2384C75.2172 6.92199 73.2801 8.82625 70.9014 8.82625C69.0172 8.82625 67.4116 7.63158 66.8132 5.9688V1.36914H62.9941V19.5613H66.8132V14.968C67.4106 13.3052 69.0172 12.1105 70.9014 12.1105C73.2801 12.1105 75.2182 14.0148 75.2384 16.3617H75.2331V19.5602H78.5015V16.3999H78.5067C78.5067 13.9957 77.3703 11.8521 75.6048 10.4668V10.4689Z" fill="#202020"/>
<path d="M95.2112 9.76969L93.0155 11.9655L95.4089 14.3589L97.6047 12.1632L95.2112 9.76969Z" fill="#202020"/>
<path d="M95.3374 0.450684C91.2917 0.450684 88 3.72329 88 7.74469H88.0042V19.5377H91.8233V7.7108H91.8191C91.8382 5.80972 93.4088 4.26979 95.3374 4.26979C97.266 4.26979 98.8558 5.82878 98.8558 7.74469V19.5377H102.675V7.74469C102.675 3.72224 99.3832 0.450684 95.3374 0.450684Z" fill="#202020"/>
<path d="M119.228 6.96629C119.228 3.55705 116.455 0.784332 113.046 0.784332C111.13 0.784332 109.414 1.66021 108.28 3.03386V1.3573H104.461V19.5494H108.28V11.5554L116.765 19.5039L119.663 16.4113L115.592 12.5975C117.734 11.6253 119.229 9.46787 119.229 6.96629H119.228ZM113.046 4.60556C114.347 4.60556 115.407 5.66465 115.407 6.96629C115.407 8.26792 114.347 9.32701 113.046 9.32701C111.744 9.32701 110.685 8.26792 110.685 6.96629C110.685 5.66465 111.744 4.60556 113.046 4.60556Z" fill="#202020"/>
<path d="M131.762 5.02622V1.20605H120.452V5.02622H124.198V6.67735H120.452V10.4965H124.198V19.5496H128.017V10.4965H131.762V6.67735H128.017V5.02622H131.762Z" fill="#202020"/>
<path d="M142 19.1305H145.819V4.6389H152.617V0.819794H142V19.1305Z" fill="#202020"/>
<path d="M149.092 8.07206L146.896 10.2678L149.291 12.662L151.486 10.4663L149.092 8.07206Z" fill="#202020"/>
<path d="M203.855 0.0593567C202.88 0.0593567 201.949 0.251053 201.096 0.596319C200.244 0.251053 199.313 0.0593567 198.337 0.0593567C194.291 0.0593567 191 3.33197 191 7.35336H191.005V19.1464H194.824V7.31947H194.82C194.836 5.76366 195.891 4.45038 197.331 4.02462C196.813 5.02335 196.519 6.15446 196.519 7.35442H196.523V19.1475H200.342V7.31947H200.338C200.346 6.51985 200.629 5.7859 201.097 5.20128C201.572 5.79331 201.857 6.54104 201.857 7.35336V19.1464H205.676V7.35442C205.676 6.15552 205.381 5.02441 204.863 4.02462C206.314 4.45355 207.374 5.78378 207.374 7.35442V19.1475H211.194V7.35442C211.194 3.33197 207.902 0.0604158 203.856 0.0604158L203.855 0.0593567Z" fill="#202020"/>
<path d="M225.371 8.08539H218.136C217.2 8.08539 216.466 7.33872 216.466 6.38659C216.466 5.43447 217.2 4.6878 218.136 4.6878H228.239V0.866577H218.136C215.108 0.866577 212.645 3.34275 212.645 6.38659C212.645 9.43044 215.108 11.9066 218.136 11.9066H225.371C226.307 11.9066 227.041 12.6522 227.041 13.6054C227.041 14.5586 226.307 15.3042 225.371 15.3042H213.941V19.1254H225.371C228.399 19.1254 230.862 16.6493 230.862 13.6054C230.862 10.5616 228.399 8.08539 225.371 8.08539Z" fill="#202020"/>
<path d="M163.352 0C157.837 0 153.351 4.48634 153.351 10C153.351 15.5137 157.837 20 163.352 20C168.867 20 173.353 15.5137 173.353 10C173.353 4.48634 168.867 0 163.352 0ZM163.352 16.1798C159.945 16.1798 157.173 13.4082 157.173 10.0011C157.173 6.59394 159.945 3.82228 163.352 3.82228C166.759 3.82228 169.531 6.59394 169.531 10.0011C169.531 13.4082 166.759 16.1798 163.352 16.1798Z" fill="#202020"/>
<path d="M163.255 7.70555L161.059 9.90131L163.454 12.2955L165.649 10.0998L163.255 7.70555Z" fill="#202020"/>
<path d="M189.524 6.47004C189.524 3.0608 186.751 0.288086 183.342 0.288086C181.426 0.288086 179.711 1.16396 178.576 2.53761V0.861058H174.757V15.2987C174.732 15.5454 174.718 15.7965 174.718 16.0506H174.722V19.0542H178.62V16.0178H178.615C178.633 14.1887 180.146 12.7071 182.002 12.7071C183.859 12.7071 185.389 14.2067 185.389 16.0517V19.0553H189.287V16.0517C189.287 14.1665 188.558 12.4476 187.367 11.1576C188.686 10.0233 189.524 8.34358 189.524 6.4711V6.47004ZM183.342 8.83077C182.041 8.83077 180.981 7.77167 180.981 6.47004C180.981 5.16841 182.041 4.10931 183.342 4.10931C184.644 4.10931 185.703 5.16841 185.703 6.47004C185.703 7.77167 184.644 8.83077 183.342 8.83077Z" fill="#202020"/>
</svg>
