<svg width="87" height="60" viewBox="0 0 87 60" fill="none" xmlns="http://www.w3.org/2000/svg">
<path d="M55.2672 18.4212V18.415H59.1492V14.6431H55.2241V14.6492C53.9096 14.6379 52.6813 14.1213 51.7608 13.1917C50.828 12.2497 50.3139 10.99 50.3139 9.64623C50.3139 8.30246 50.828 7.04377 51.7608 6.10078C52.6916 5.16086 53.9373 4.64324 55.2672 4.64324H59.1492V0.870239H55.2672C52.9204 0.870239 50.7213 1.78556 49.0754 3.4481C47.4386 5.10141 46.5366 7.30207 46.5366 9.64623C46.5366 11.9904 47.4376 14.191 49.0754 15.8444C50.7213 17.5069 52.9204 18.4222 55.2672 18.4222V18.4212Z" fill="#202020"/>
<path d="M28.4135 14.7968H23.6305V0.860962H19.9302V18.4929H28.4135V14.7968Z" fill="#202020"/>
<path d="M3.7024 18.494H12.5941C15.5166 18.494 17.8953 16.1067 17.8953 13.1712C17.8953 11.8469 17.4099 10.6353 16.6105 9.70362C17.4099 8.77087 17.8953 7.55933 17.8953 6.23607C17.8953 3.30151 15.5177 0.913278 12.5941 0.913278H3.7024V0.904053H0V18.5145H3.7024V18.494ZM12.5941 14.7958H3.7024V11.5589H12.5941C12.6423 11.5589 12.6895 11.5568 12.7367 11.5548C13.5638 11.6255 14.1919 12.3102 14.1919 13.1722C14.1919 14.0824 13.49 14.7958 12.5941 14.7958ZM12.5941 4.61145C13.49 4.61145 14.1919 5.32485 14.1919 6.23504C14.1919 7.09706 13.5628 7.78073 12.7367 7.85248C12.6895 7.85145 12.6423 7.84838 12.5941 7.84838H3.7024V4.61145H12.5941Z" fill="#202020"/>
<path d="M37.334 9.01264L35.2065 11.1377L37.5263 13.4548L39.6538 11.3298L37.334 9.01264Z" fill="#202020"/>
<path d="M30.3537 18.4734H34.0541V7.02633H34.05C34.0684 5.18646 35.5902 3.69612 37.4589 3.69612C39.3275 3.69612 40.8678 5.20491 40.8678 7.05913V18.4724H44.5681V7.05913C44.5681 3.16723 41.3788 0 37.4589 0C33.5389 0 30.3496 3.16723 30.3496 7.05913H30.3537V18.4724V18.4734Z" fill="#202020"/>
<path d="M6.9849 29.2402L4.85742 31.3652L7.17646 33.6816L9.30394 31.5566L6.9849 29.2402Z" fill="#202020"/>
<path d="M14.2205 38.6975V27.2842C14.2205 23.3913 11.0312 20.2251 7.11127 20.2251C3.19132 20.2251 0.000976562 23.3923 0.000976562 27.2842H0.00610738V38.6975H3.70646V27.2514H3.70235C3.72082 25.4116 5.24262 23.9212 7.11127 23.9212C8.97991 23.9212 10.5202 25.43 10.5202 27.2842V38.6975H14.2205Z" fill="#202020"/>
<path d="M64.7233 14.066C65.3021 12.4567 66.8587 11.3006 68.6843 11.3006C70.9891 11.3006 72.8669 13.1435 72.8864 15.4149H72.8813V18.5104H76.048V15.4518H76.0532C76.0532 13.125 74.9521 11.0505 73.2415 9.70977C74.9521 8.36907 76.0532 6.29449 76.0532 3.96878H76.048V0.911228H72.8813V4.00568H72.8864C72.8659 6.27809 70.9891 8.12103 68.6843 8.12103C66.8587 8.12103 65.3031 6.96483 64.7233 5.3556V0.904053H61.0229V18.5104H64.7233V14.065V14.066Z" fill="#202020"/>
<path d="M0 59.1575H3.70137V45.1325H10.2883V41.4364H0V59.1575Z" fill="#202020"/>
<path d="M6.87455 48.4553L4.74707 50.5803L7.06684 52.8974L9.19432 50.7724L6.87455 48.4553Z" fill="#202020"/>
<path d="M59.9238 40.7004C58.9787 40.7004 58.0767 40.886 57.2507 41.2201C56.4246 40.886 55.5226 40.7004 54.5775 40.7004C50.6576 40.7004 47.4683 43.8677 47.4683 47.7596H47.4734V59.1729H51.1737V47.7268H51.1696C51.185 46.2211 52.2071 44.9501 53.6027 44.538C53.1009 45.5046 52.8156 46.5993 52.8156 47.7606H52.8197V59.1739H56.5201V47.7278H56.516C56.5242 46.9539 56.7981 46.2436 57.2517 45.6778C57.7114 46.2508 57.9875 46.9744 57.9875 47.7606V59.1739H61.6878V47.7606C61.6878 46.6003 61.4025 45.5056 60.9008 44.538C62.3066 44.9531 63.3338 46.2405 63.3338 47.7606V59.1739H67.0341V47.7606C67.0341 43.8677 63.8448 40.7015 59.9249 40.7015L59.9238 40.7004Z" fill="#202020"/>
<path d="M80.7664 48.4678H73.7567C72.8496 48.4678 72.1384 47.7452 72.1384 46.8237C72.1384 45.9022 72.8496 45.1796 73.7567 45.1796H83.5453V41.4814H73.7567C70.8229 41.4814 68.436 43.8779 68.436 46.8237C68.436 49.7695 70.8229 52.166 73.7567 52.166H80.7664C81.6736 52.166 82.3847 52.8876 82.3847 53.8101C82.3847 54.7325 81.6736 55.4541 80.7664 55.4541H69.6921V59.1523H80.7664C83.7002 59.1523 86.0871 56.7559 86.0871 53.8101C86.0871 50.8642 83.7002 48.4678 80.7664 48.4678Z" fill="#202020"/>
<path d="M20.6886 40.6431C15.3454 40.6431 10.9985 44.9849 10.9985 50.321C10.9985 55.6572 15.3454 59.999 20.6886 59.999C26.0318 59.999 30.3787 55.6572 30.3787 50.321C30.3787 44.9849 26.0318 40.6431 20.6886 40.6431ZM20.6886 56.3019C17.3874 56.3019 14.702 53.6195 14.702 50.3221C14.702 47.0247 17.3874 44.3423 20.6886 44.3423C23.9898 44.3423 26.6752 47.0247 26.6752 50.3221C26.6752 53.6195 23.9898 56.3019 20.6886 56.3019Z" fill="#202020"/>
<path d="M20.5923 48.0999L18.4648 50.225L20.7846 52.5421L22.9121 50.417L20.5923 48.0999Z" fill="#202020"/>
<path d="M46.0421 46.9057C46.0421 43.6063 43.3556 40.9229 40.0523 40.9229C38.196 40.9229 36.5336 41.7705 35.4346 43.0999V41.4774H31.7343V55.4501C31.7096 55.6889 31.6963 55.9318 31.6963 56.1778H31.7004V59.0847H35.4767V56.146H35.4726C35.49 54.3759 36.9554 52.9419 38.7542 52.9419C40.5531 52.9419 42.0359 54.3933 42.0359 56.1788V59.0857H45.8122V56.1788C45.8122 54.3544 45.1062 52.6908 43.9518 51.4424C45.2304 50.3446 46.0421 48.7189 46.0421 46.9068V46.9057ZM40.0523 44.621C41.3135 44.621 42.3397 45.646 42.3397 46.9057C42.3397 48.1655 41.3135 49.1904 40.0523 49.1904C38.7912 49.1904 37.765 48.1655 37.765 46.9057C37.765 45.646 38.7912 44.621 40.0523 44.621Z" fill="#202020"/>
<path d="M30.2546 26.5309C30.2546 23.2314 27.5681 20.548 24.2649 20.548C22.4085 20.548 20.7461 21.3956 19.6471 22.7251V21.1025H15.9468V38.7098H19.6471V30.9722L27.8688 38.6647L30.6763 35.6717L26.7318 31.9807C28.8077 31.0398 30.2556 28.9519 30.2556 26.5309H30.2546ZM24.2649 24.2461C25.526 24.2461 26.5522 25.2711 26.5522 26.5309C26.5522 27.7906 25.526 28.8156 24.2649 28.8156C23.0037 28.8156 21.9775 27.7906 21.9775 26.5309C21.9775 25.2711 23.0037 24.2461 24.2649 24.2461Z" fill="#202020"/>
<path d="M35.065 38.7099H38.7654V29.9483H42.3949V26.2511H38.7654V24.6532H42.3949V20.957H31.4365V24.6532H35.065V26.2511H31.4365V29.9483H35.065V38.7099Z" fill="#202020"/>
</svg>
